# Blender 4.3.2
# www.blender.org
o Text
v 0.935946 0.000000 0.000000
v 0.760038 0.000000 0.000000
v 0.760038 0.362333 0.000000
v 0.672084 0.362333 0.000000
v 0.672084 0.431166 0.000000
v 0.760038 0.431166 0.000000
v 0.760038 0.558317 0.000000
v 0.832696 0.558317 0.000000
v 0.832696 0.431166 0.000000
v 0.935946 0.431166 0.000000
v 0.935946 0.362333 0.000000
v 0.832696 0.362333 0.000000
v 0.832696 0.068834 0.000000
v 0.935946 0.068834 0.000000
v 0.515296 0.000000 0.000000
v 0.515296 0.431166 0.000000
v 0.284895 0.431166 0.000000
v 0.284895 0.646272 0.000000
v 0.212237 0.646272 0.000000
v 0.212237 0.000000 0.000000
v 0.284895 0.000000 0.000000
v 0.284895 0.362333 0.000000
v 0.438815 0.362333 0.000000
v 0.438815 0.000000 0.000000
v -0.021032 0.000000 0.000000
v -0.021032 -0.108031 -0.000000
v -0.247610 -0.108031 -0.000000
v -0.247610 -0.175908 -0.000000
v 0.055449 -0.175908 -0.000000
v 0.055449 0.431166 0.000000
v -0.245698 0.431166 0.000000
v -0.245698 0.000000 0.000000
v -0.021032 0.070746 0.000000
v -0.174952 0.070746 0.000000
v -0.174952 0.360421 0.000000
v -0.021032 0.360421 0.000000
v -0.476099 0.646272 0.000000
v -0.476099 0.519120 0.000000
v -0.403442 0.519120 0.000000
v -0.403442 0.646272 0.000000
v -0.476099 0.430210 0.000000
v -0.476099 0.000000 0.000000
v -0.403442 0.000000 0.000000
v -0.403442 0.431166 0.000000
v -0.603250 0.000000 0.000000
v -0.698853 0.000000 0.000000
v -0.832696 0.244742 0.000000
v -0.863289 0.244742 0.000000
v -0.862333 0.000000 0.000000
v -0.935946 0.000000 0.000000
v -0.935946 0.547801 0.000000
v -0.652008 0.547801 0.000000
v -0.652008 0.244742 0.000000
v -0.736138 0.244742 0.000000
v -0.728489 0.313576 0.000000
v -0.728489 0.479924 0.000000
v -0.863289 0.479924 0.000000
v -0.863289 0.313576 0.000000
v 0.935946 0.000000 -0.110000
v 0.760038 0.000000 -0.110000
v 0.760038 0.362333 -0.110000
v 0.672084 0.362333 -0.110000
v 0.672084 0.431166 -0.110000
v 0.760038 0.431166 -0.110000
v 0.760038 0.558317 -0.110000
v 0.832696 0.558317 -0.110000
v 0.832696 0.431166 -0.110000
v 0.935946 0.431166 -0.110000
v 0.935946 0.362333 -0.110000
v 0.832696 0.362333 -0.110000
v 0.832696 0.068834 -0.110000
v 0.935946 0.068834 -0.110000
v 0.515296 0.000000 -0.110000
v 0.515296 0.431166 -0.110000
v 0.284895 0.431166 -0.110000
v 0.284895 0.646272 -0.110000
v 0.212237 0.646272 -0.110000
v 0.212237 0.000000 -0.110000
v 0.284895 0.000000 -0.110000
v 0.284895 0.362333 -0.110000
v 0.438815 0.362333 -0.110000
v 0.438815 0.000000 -0.110000
v -0.021032 0.000000 -0.110000
v -0.021032 -0.108031 -0.110000
v -0.247610 -0.108031 -0.110000
v -0.247610 -0.175908 -0.110000
v 0.055449 -0.175908 -0.110000
v 0.055449 0.431166 -0.110000
v -0.245698 0.431166 -0.110000
v -0.245698 0.000000 -0.110000
v -0.021032 0.070746 -0.110000
v -0.174952 0.070746 -0.110000
v -0.174952 0.360421 -0.110000
v -0.021032 0.360421 -0.110000
v -0.476099 0.646272 -0.110000
v -0.476099 0.519120 -0.110000
v -0.403442 0.519120 -0.110000
v -0.403442 0.646272 -0.110000
v -0.476099 0.430210 -0.110000
v -0.476099 0.000000 -0.110000
v -0.403442 0.000000 -0.110000
v -0.403442 0.431166 -0.110000
v -0.603250 0.000000 -0.110000
v -0.698853 0.000000 -0.110000
v -0.832696 0.244742 -0.110000
v -0.863289 0.244742 -0.110000
v -0.862333 0.000000 -0.110000
v -0.935946 0.000000 -0.110000
v -0.935946 0.547801 -0.110000
v -0.652008 0.547801 -0.110000
v -0.652008 0.244742 -0.110000
v -0.736138 0.244742 -0.110000
v -0.728489 0.313576 -0.110000
v -0.728489 0.479924 -0.110000
v -0.863289 0.479924 -0.110000
v -0.863289 0.313576 -0.110000
vn -0.0000 -0.0000 1.0000
vn -0.0000 -0.0000 -1.0000
vn -1.0000 -0.0000 -0.0000
vn -0.0000 1.0000 -0.0000
vn 1.0000 -0.0000 -0.0000
vn -0.0000 -1.0000 -0.0000
vn -0.0132 0.9999 -0.0000
vn 1.0000 0.0039 -0.0000
vn -0.8774 -0.4798 -0.0000
vn 0.8788 0.4772 -0.0000
vt 0.384615 0.000000
vt 0.538462 0.000000
vt 0.461538 0.000000
vt 0.615385 0.000000
vt 0.230769 0.000000
vt 0.307692 0.000000
vt 0.692308 0.000000
vt 0.769231 0.000000
vt 0.153846 0.000000
vt 0.076923 0.000000
vt 0.846154 0.000000
vt 0.923077 0.000000
vt 1.000000 0.000000
vt 0.000000 0.000000
vt 0.555556 0.000000
vt 0.333333 0.000000
vt 0.444444 0.000000
vt 0.222222 0.000000
vt 0.777778 0.000000
vt 0.111111 0.000000
vt 0.888889 0.000000
vt 0.666667 0.000000
vt 0.636364 0.000000
vt 0.909091 0.000000
vt 0.545455 0.000000
vt 0.454545 0.000000
vt 0.363636 0.000000
vt 0.818182 0.000000
vt 0.727273 0.000000
vt 0.090909 0.000000
vt 0.272727 0.000000
vt 0.181818 0.000000
vt 0.571429 0.000000
vt 0.857143 0.000000
vt 0.714286 0.000000
vt 0.142857 0.000000
vt 0.428571 0.000000
vt 0.285714 0.000000
s 0
f 6/1/1 8/2/1 7/3/1
f 6/1/1 9/4/1 8/2/1
f 4/5/1 6/1/1 5/6/1
f 4/5/1 9/4/1 6/1/1
f 4/5/1 10/7/1 9/4/1
f 4/5/1 11/8/1 10/7/1
f 3/9/1 11/8/1 4/5/1
f 2/10/1 12/11/1 3/9/1
f 12/11/1 11/8/1 3/9/1
f 2/10/1 13/12/1 12/11/1
f 2/10/1 14/13/1 13/12/1
f 2/10/1 1/14/1 14/13/1
f 20/15/1 18/16/1 19/17/1
f 20/15/1 17/18/1 18/16/1
f 20/15/1 22/19/1 17/18/1
f 22/19/1 16/20/1 17/18/1
f 22/19/1 23/21/1 16/20/1
f 23/21/1 15/14/1 16/20/1
f 20/15/1 21/22/1 22/19/1
f 24/13/1 15/14/1 23/21/1
f 32/23/1 35/24/1 31/25/1
f 35/24/1 30/26/1 31/25/1
f 35/24/1 36/13/1 30/26/1
f 36/13/1 29/27/1 30/26/1
f 32/23/1 34/28/1 35/24/1
f 33/29/1 29/27/1 36/13/1
f 32/23/1 33/29/1 34/28/1
f 32/23/1 25/14/1 33/29/1
f 25/14/1 29/27/1 33/29/1
f 26/30/1 29/27/1 25/14/1
f 28/31/1 26/30/1 27/32/1
f 28/31/1 29/27/1 26/30/1
f 41/33/1 43/34/1 44/13/1
f 42/35/1 43/34/1 41/33/1
f 38/36/1 40/37/1 37/14/1
f 38/36/1 39/38/1 40/37/1
f 50/1/1 57/12/1 51/3/1
f 57/12/1 52/2/1 51/3/1
f 57/12/1 56/11/1 52/2/1
f 56/11/1 53/4/1 52/2/1
f 50/1/1 58/13/1 57/12/1
f 55/8/1 53/4/1 56/11/1
f 50/1/1 48/5/1 58/13/1
f 48/5/1 55/8/1 58/13/1
f 48/5/1 53/4/1 55/8/1
f 50/1/1 49/6/1 48/5/1
f 47/9/1 53/4/1 48/5/1
f 46/10/1 54/7/1 47/9/1
f 54/7/1 53/4/1 47/9/1
f 46/10/1 45/14/1 54/7/1
f 64/1/2 65/3/2 66/2/2
f 64/1/2 66/2/2 67/4/2
f 62/5/2 63/6/2 64/1/2
f 62/5/2 64/1/2 67/4/2
f 62/5/2 67/4/2 68/7/2
f 62/5/2 68/7/2 69/8/2
f 61/9/2 62/5/2 69/8/2
f 60/10/2 61/9/2 70/11/2
f 70/11/1 61/9/1 69/8/1
f 60/10/2 70/11/2 71/12/2
f 60/10/2 71/12/2 72/13/2
f 60/10/2 72/13/2 59/14/2
f 78/15/2 77/17/2 76/16/2
f 78/15/2 76/16/2 75/18/2
f 78/15/2 75/18/2 80/19/2
f 80/19/2 75/18/2 74/20/2
f 80/19/2 74/20/2 81/21/2
f 81/21/2 74/20/2 73/14/2
f 78/15/2 80/19/2 79/22/2
f 82/13/2 81/21/2 73/14/2
f 90/23/2 89/25/2 93/24/2
f 93/24/2 89/25/2 88/26/2
f 93/24/2 88/26/2 94/13/2
f 94/13/2 88/26/2 87/27/2
f 90/23/2 93/24/2 92/28/2
f 91/29/2 94/13/2 87/27/2
f 90/23/2 92/28/2 91/29/2
f 90/23/2 91/29/2 83/14/2
f 83/14/2 91/29/2 87/27/2
f 84/30/2 83/14/2 87/27/2
f 86/31/2 85/32/2 84/30/2
f 86/31/2 84/30/2 87/27/2
f 99/33/2 102/13/2 101/34/2
f 100/35/2 99/33/2 101/34/2
f 96/36/2 95/14/2 98/37/2
f 96/36/2 98/37/2 97/38/2
f 108/1/2 109/3/2 115/12/2
f 115/12/2 109/3/2 110/2/2
f 115/12/2 110/2/2 114/11/2
f 114/11/2 110/2/2 111/4/2
f 108/1/2 115/12/2 116/13/2
f 113/8/2 114/11/2 111/4/2
f 108/1/2 116/13/2 106/5/2
f 106/5/2 116/13/2 113/8/2
f 106/5/2 113/8/2 111/4/2
f 108/1/2 106/5/2 107/6/2
f 105/9/2 106/5/2 111/4/2
f 104/10/2 105/9/2 112/7/2
f 112/7/1 105/9/1 111/4/1
f 104/10/2 112/7/2 103/14/2
f 6/1/3 7/3/3 65/3/3 64/1/3
f 7/3/4 8/2/4 66/2/4 65/3/4
f 8/2/5 9/4/5 67/4/5 66/2/5
f 4/5/3 5/6/3 63/6/3 62/5/3
f 5/6/4 6/1/4 64/1/4 63/6/4
f 9/4/4 10/7/4 68/7/4 67/4/4
f 10/7/5 11/8/5 69/8/5 68/7/5
f 3/9/6 4/5/6 62/5/6 61/9/6
f 2/10/3 3/9/3 61/9/3 60/10/3
f 11/8/6 12/11/6 70/11/6 69/8/6
f 12/11/5 13/12/5 71/12/5 70/11/5
f 13/12/4 14/13/4 72/13/4 71/12/4
f 1/14/6 2/10/6 60/10/6 59/14/6
f 14/13/5 1/14/5 59/14/5 72/13/5
f 20/15/3 19/17/3 77/17/3 78/15/3
f 19/17/4 18/16/4 76/16/4 77/17/4
f 18/16/5 17/18/5 75/18/5 76/16/5
f 17/18/4 16/20/4 74/20/4 75/18/4
f 23/21/6 22/19/6 80/19/6 81/21/6
f 16/20/5 15/14/5 73/14/5 74/20/5
f 21/22/6 20/15/6 78/15/6 79/22/6
f 22/19/5 21/22/5 79/22/5 80/19/5
f 24/13/3 23/21/3 81/21/3 82/13/3
f 15/14/6 24/13/6 82/13/6 73/14/6
f 32/23/3 31/25/3 89/25/3 90/23/3
f 31/25/4 30/26/4 88/26/4 89/25/4
f 36/13/6 35/24/6 93/24/6 94/13/6
f 30/26/5 29/27/5 87/27/5 88/26/5
f 35/24/5 34/28/5 92/28/5 93/24/5
f 33/29/3 36/13/3 94/13/3 91/29/3
f 34/28/4 33/29/4 91/29/4 92/28/4
f 25/14/6 32/23/6 90/23/6 83/14/6
f 26/30/3 25/14/3 83/14/3 84/30/3
f 28/31/3 27/32/3 85/32/3 86/31/3
f 27/32/4 26/30/4 84/30/4 85/32/4
f 29/27/6 28/31/6 86/31/6 87/27/6
f 41/33/7 44/13/7 102/13/7 99/33/7
f 44/13/5 43/34/5 101/34/5 102/13/5
f 42/35/3 41/33/3 99/33/3 100/35/3
f 43/34/6 42/35/6 100/35/6 101/34/6
f 38/36/3 37/14/3 95/14/3 96/36/3
f 37/14/4 40/37/4 98/37/4 95/14/4
f 39/38/6 38/36/6 96/36/6 97/38/6
f 40/37/5 39/38/5 97/38/5 98/37/5
f 50/1/3 51/3/3 109/3/3 108/1/3
f 51/3/4 52/2/4 110/2/4 109/3/4
f 56/11/6 57/12/6 115/12/6 114/11/6
f 52/2/5 53/4/5 111/4/5 110/2/5
f 57/12/5 58/13/5 116/13/5 115/12/5
f 55/8/3 56/11/3 114/11/3 113/8/3
f 58/13/4 55/8/4 113/8/4 116/13/4
f 49/6/6 50/1/6 108/1/6 107/6/6
f 48/5/8 49/6/8 107/6/8 106/5/8
f 47/9/6 48/5/6 106/5/6 105/9/6
f 46/10/9 47/9/9 105/9/9 104/10/9
f 53/4/6 54/7/6 112/7/6 111/4/6
f 45/14/6 46/10/6 104/10/6 103/14/6
f 54/7/10 45/14/10 103/14/10 112/7/10
