# Blender 4.3.2
# www.blender.org
mtllib showcase.mtl
o Text
v 1.646749 0.175908 0.000000
v 1.646749 0.068834 0.000000
v 1.873327 0.068834 0.000000
v 1.873327 0.000000 0.000000
v 1.570268 0.000000 0.000000
v 1.570268 0.431166 0.000000
v 1.871415 0.431166 0.000000
v 1.871415 0.175908 0.000000
v 1.646749 0.246654 0.000000
v 1.801625 0.246654 0.000000
v 1.801625 0.360421 0.000000
v 1.646749 0.360421 0.000000
v 1.183078 0.071702 0.000000
v 1.183078 0.108031 0.000000
v 1.110421 0.108031 0.000000
v 1.110421 0.000000 0.000000
v 1.411568 0.000956 0.000000
v 1.411568 0.221797 0.000000
v 1.186903 0.274379 0.000000
v 1.186903 0.359465 0.000000
v 1.341778 0.359465 0.000000
v 1.341778 0.274379 0.000000
v 1.413480 0.274379 0.000000
v 1.413480 0.431166 0.000000
v 1.110421 0.431166 0.000000
v 1.110421 0.205545 0.000000
v 1.336998 0.152964 0.000000
v 1.336998 0.071702 0.000000
v 0.877151 0.254302 0.000000
v 0.877151 0.362333 0.000000
v 0.650574 0.362333 0.000000
v 0.650574 0.431166 0.000000
v 0.953633 0.431166 0.000000
v 0.953633 0.000000 0.000000
v 0.652486 0.000000 0.000000
v 0.652486 0.254302 0.000000
v 0.877151 0.184512 0.000000
v 0.723231 0.184512 0.000000
v 0.723231 0.070746 0.000000
v 0.877151 0.070746 0.000000
v 0.422084 0.359465 0.000000
v 0.267209 0.359465 0.000000
v 0.267209 0.068834 0.000000
v 0.486138 0.068834 0.000000
v 0.486138 0.000000 0.000000
v 0.190727 0.000000 0.000000
v 0.190727 0.431166 0.000000
v 0.493786 0.431166 0.000000
v 0.493786 0.274379 0.000000
v 0.422084 0.274379 0.000000
v -0.269120 0.431166 0.000000
v -0.190726 0.431166 0.000000
v -0.190726 0.068834 0.000000
v -0.037763 0.068834 0.000000
v -0.037763 0.431166 0.000000
v 0.034895 0.431166 0.000000
v 0.034895 0.000000 0.000000
v -0.493786 0.000000 0.000000
v -0.493786 0.431166 0.000000
v -0.417304 0.431166 0.000000
v -0.417304 0.068834 0.000000
v -0.269120 0.068834 0.000000
v -0.953633 0.000000 0.000000
v -0.953633 0.431166 0.000000
v -0.650573 0.431166 0.000000
v -0.650573 0.000000 0.000000
v -0.722275 0.360421 0.000000
v -0.877151 0.359465 0.000000
v -0.877151 0.068834 0.000000
v -0.722275 0.068834 0.000000
v -1.110421 0.000000 0.000000
v -1.110421 0.431166 0.000000
v -1.340822 0.431166 0.000000
v -1.340822 0.646272 0.000000
v -1.413480 0.646272 0.000000
v -1.413480 0.000000 0.000000
v -1.340822 0.000000 0.000000
v -1.340822 0.362333 0.000000
v -1.186902 0.362333 0.000000
v -1.186902 0.000000 0.000000
v -1.800669 0.071702 0.000000
v -1.800669 0.156788 0.000000
v -1.873327 0.156788 0.000000
v -1.873327 0.000000 0.000000
v -1.572180 0.000956 0.000000
v -1.572180 0.232314 0.000000
v -1.796845 0.362333 0.000000
v -1.796845 0.477055 0.000000
v -1.641969 0.477055 0.000000
v -1.641969 0.391969 0.000000
v -1.570268 0.391969 0.000000
v -1.570268 0.547801 0.000000
v -1.873327 0.547801 0.000000
v -1.873327 0.293499 0.000000
v -1.646749 0.162524 0.000000
v -1.646749 0.071702 0.000000
v 1.646749 0.175908 -0.110000
v 1.646749 0.068834 -0.110000
v 1.873327 0.068834 -0.110000
v 1.873327 0.000000 -0.110000
v 1.570268 0.000000 -0.110000
v 1.570268 0.431166 -0.110000
v 1.871415 0.431166 -0.110000
v 1.871415 0.175908 -0.110000
v 1.646749 0.246654 -0.110000
v 1.801625 0.246654 -0.110000
v 1.801625 0.360421 -0.110000
v 1.646749 0.360421 -0.110000
v 1.183078 0.071702 -0.110000
v 1.183078 0.108031 -0.110000
v 1.110421 0.108031 -0.110000
v 1.110421 0.000000 -0.110000
v 1.411568 0.000956 -0.110000
v 1.411568 0.221797 -0.110000
v 1.186903 0.274379 -0.110000
v 1.186903 0.359465 -0.110000
v 1.341778 0.359465 -0.110000
v 1.341778 0.274379 -0.110000
v 1.413480 0.274379 -0.110000
v 1.413480 0.431166 -0.110000
v 1.110421 0.431166 -0.110000
v 1.110421 0.205545 -0.110000
v 1.336998 0.152964 -0.110000
v 1.336998 0.071702 -0.110000
v 0.877151 0.254302 -0.110000
v 0.877151 0.362333 -0.110000
v 0.650574 0.362333 -0.110000
v 0.650574 0.431166 -0.110000
v 0.953633 0.431166 -0.110000
v 0.953633 0.000000 -0.110000
v 0.652486 0.000000 -0.110000
v 0.652486 0.254302 -0.110000
v 0.877151 0.184512 -0.110000
v 0.723231 0.184512 -0.110000
v 0.723231 0.070746 -0.110000
v 0.877151 0.070746 -0.110000
v 0.422084 0.359465 -0.110000
v 0.267209 0.359465 -0.110000
v 0.267209 0.068834 -0.110000
v 0.486138 0.068834 -0.110000
v 0.486138 0.000000 -0.110000
v 0.190727 0.000000 -0.110000
v 0.190727 0.431166 -0.110000
v 0.493786 0.431166 -0.110000
v 0.493786 0.274379 -0.110000
v 0.422084 0.274379 -0.110000
v -0.269120 0.431166 -0.110000
v -0.190726 0.431166 -0.110000
v -0.190726 0.068834 -0.110000
v -0.037763 0.068834 -0.110000
v -0.037763 0.431166 -0.110000
v 0.034895 0.431166 -0.110000
v 0.034895 0.000000 -0.110000
v -0.493786 0.000000 -0.110000
v -0.493786 0.431166 -0.110000
v -0.417304 0.431166 -0.110000
v -0.417304 0.068834 -0.110000
v -0.269120 0.068834 -0.110000
v -0.953633 0.000000 -0.110000
v -0.953633 0.431166 -0.110000
v -0.650573 0.431166 -0.110000
v -0.650573 0.000000 -0.110000
v -0.722275 0.360421 -0.110000
v -0.877151 0.359465 -0.110000
v -0.877151 0.068834 -0.110000
v -0.722275 0.068834 -0.110000
v -1.110421 0.000000 -0.110000
v -1.110421 0.431166 -0.110000
v -1.340822 0.431166 -0.110000
v -1.340822 0.646272 -0.110000
v -1.413480 0.646272 -0.110000
v -1.413480 0.000000 -0.110000
v -1.340822 0.000000 -0.110000
v -1.340822 0.362333 -0.110000
v -1.186902 0.362333 -0.110000
v -1.186902 0.000000 -0.110000
v -1.800669 0.071702 -0.110000
v -1.800669 0.156788 -0.110000
v -1.873327 0.156788 -0.110000
v -1.873327 0.000000 -0.110000
v -1.572180 0.000956 -0.110000
v -1.572180 0.232314 -0.110000
v -1.796845 0.362333 -0.110000
v -1.796845 0.477055 -0.110000
v -1.641969 0.477055 -0.110000
v -1.641969 0.391969 -0.110000
v -1.570268 0.391969 -0.110000
v -1.570268 0.547801 -0.110000
v -1.873327 0.547801 -0.110000
v -1.873327 0.293499 -0.110000
v -1.646749 0.162524 -0.110000
v -1.646749 0.071702 -0.110000
vn -0.0000 -0.0000 1.0000
vn -0.0000 -0.0000 -1.0000
vn -1.0000 -0.0000 -0.0000
vn -0.0000 1.0000 -0.0000
vn -0.0000 -1.0000 -0.0000
vn 1.0000 -0.0000 -0.0000
vn 0.2279 0.9737 -0.0000
vn -0.2261 -0.9741 -0.0000
vn 0.0032 -1.0000 -0.0000
vn 0.0062 -1.0000 -0.0000
vn 0.5009 0.8655 -0.0000
vn -0.5005 -0.8658 -0.0000
vt 0.363636 0.000000
vt 1.000000 0.000000
vt 0.454545 0.000000
vt 0.545455 0.000000
vt 0.909091 0.000000
vt 0.636364 0.000000
vt 0.727273 0.000000
vt 0.818182 0.000000
vt 0.000000 0.000000
vt 0.090909 0.000000
vt 0.181818 0.000000
vt 0.272727 0.000000
vt 0.866667 0.000000
vt 0.466667 0.000000
vt 0.800000 0.000000
vt 0.733333 0.000000
vt 0.533333 0.000000
vt 0.666667 0.000000
vt 0.400000 0.000000
vt 0.600000 0.000000
vt 0.333333 0.000000
vt 0.933333 0.000000
vt 0.266667 0.000000
vt 0.200000 0.000000
vt 0.066667 0.000000
vt 0.133333 0.000000
vt 0.555556 0.000000
vt 0.111111 0.000000
vt 0.777778 0.000000
vt 0.888889 0.000000
vt 0.222222 0.000000
vt 0.444444 0.000000
vt 0.714286 0.000000
vt 0.142857 0.000000
vt 0.285714 0.000000
vt 0.571429 0.000000
vt 0.428571 0.000000
vt 0.857143 0.000000
s 0
f 5/1/1 12/2/1 6/3/1
f 12/2/1 7/4/1 6/3/1
f 12/2/1 11/5/1 7/4/1
f 11/5/1 8/6/1 7/4/1
f 5/1/1 9/7/1 12/2/1
f 10/8/1 8/6/1 11/5/1
f 5/1/1 1/9/1 9/7/1
f 1/9/1 10/8/1 9/7/1
f 1/9/1 8/6/1 10/8/1
f 5/1/1 2/10/1 1/9/1
f 5/1/1 3/11/1 2/10/1
f 5/1/1 4/12/1 3/11/1
f 26/13/1 20/14/1 25/15/1
f 20/14/1 24/16/1 25/15/1
f 20/14/1 21/17/1 24/16/1
f 21/17/1 23/18/1 24/16/1
f 26/13/1 19/19/1 20/14/1
f 22/20/1 23/18/1 21/17/1
f 26/13/1 18/21/1 19/19/1
f 26/13/1 27/22/1 18/21/1
f 27/22/1 17/23/1 18/21/1
f 28/2/1 17/23/1 27/22/1
f 16/24/1 14/25/1 15/26/1
f 16/24/1 13/9/1 14/25/1
f 16/24/1 28/2/1 13/9/1
f 16/24/1 17/23/1 28/2/1
f 31/11/1 33/1/1 32/12/1
f 31/11/1 30/10/1 33/1/1
f 30/10/1 34/3/1 33/1/1
f 29/9/1 34/3/1 30/10/1
f 35/4/1 38/8/1 36/6/1
f 38/8/1 29/9/1 36/6/1
f 38/8/1 37/7/1 29/9/1
f 37/7/1 34/3/1 29/9/1
f 35/4/1 39/5/1 38/8/1
f 40/2/1 34/3/1 37/7/1
f 35/4/1 40/2/1 39/5/1
f 35/4/1 34/3/1 40/2/1
f 46/27/1 42/28/1 47/18/1
f 42/28/1 48/29/1 47/18/1
f 42/28/1 41/9/1 48/29/1
f 41/9/1 49/30/1 48/29/1
f 46/27/1 43/31/1 42/28/1
f 50/2/1 49/30/1 41/9/1
f 46/27/1 44/21/1 43/31/1
f 46/27/1 45/32/1 44/21/1
f 58/6/1 60/8/1 59/7/1
f 58/6/1 61/5/1 60/8/1
f 62/2/1 52/10/1 51/9/1
f 62/2/1 53/11/1 52/10/1
f 54/12/1 56/3/1 55/1/1
f 54/12/1 57/4/1 56/3/1
f 58/6/1 62/2/1 61/5/1
f 58/6/1 53/11/1 62/2/1
f 58/6/1 54/12/1 53/11/1
f 58/6/1 57/4/1 54/12/1
f 63/9/1 68/33/1 64/34/1
f 68/33/1 65/35/1 64/34/1
f 68/33/1 67/36/1 65/35/1
f 67/36/1 66/37/1 65/35/1
f 70/2/1 66/37/1 67/36/1
f 63/9/1 69/38/1 68/33/1
f 63/9/1 70/2/1 69/38/1
f 63/9/1 66/37/1 70/2/1
f 76/27/1 74/21/1 75/32/1
f 76/27/1 73/31/1 74/21/1
f 76/27/1 78/29/1 73/31/1
f 78/29/1 72/28/1 73/31/1
f 78/29/1 79/30/1 72/28/1
f 79/30/1 71/9/1 72/28/1
f 76/27/1 77/18/1 78/29/1
f 80/2/1 71/9/1 79/30/1
f 94/13/1 88/14/1 93/15/1
f 88/14/1 92/16/1 93/15/1
f 88/14/1 89/17/1 92/16/1
f 89/17/1 91/18/1 92/16/1
f 94/13/1 87/19/1 88/14/1
f 90/20/1 91/18/1 89/17/1
f 94/13/1 86/21/1 87/19/1
f 95/22/1 86/21/1 94/13/1
f 95/22/1 85/23/1 86/21/1
f 96/2/1 85/23/1 95/22/1
f 84/24/1 82/25/1 83/26/1
f 84/24/1 81/9/1 82/25/1
f 84/24/1 96/2/1 81/9/1
f 84/24/1 85/23/1 96/2/1
f 101/1/2 102/3/2 108/2/2
f 108/2/2 102/3/2 103/4/2
f 108/2/2 103/4/2 107/5/2
f 107/5/2 103/4/2 104/6/2
f 101/1/2 108/2/2 105/7/2
f 106/8/2 107/5/2 104/6/2
f 101/1/2 105/7/2 97/9/2
f 97/9/2 105/7/2 106/8/2
f 97/9/2 106/8/2 104/6/2
f 101/1/2 97/9/2 98/10/2
f 101/1/2 98/10/2 99/11/2
f 101/1/2 99/11/2 100/12/2
f 122/13/2 121/15/2 116/14/2
f 116/14/2 121/15/2 120/16/2
f 116/14/2 120/16/2 117/17/2
f 117/17/2 120/16/2 119/18/2
f 122/13/2 116/14/2 115/19/2
f 118/20/2 117/17/2 119/18/2
f 122/13/2 115/19/2 114/21/2
f 122/13/2 114/21/2 123/22/2
f 123/22/2 114/21/2 113/23/2
f 124/2/2 123/22/2 113/23/2
f 112/24/2 111/26/2 110/25/2
f 112/24/2 110/25/2 109/9/2
f 112/24/2 109/9/2 124/2/2
f 112/24/2 124/2/2 113/23/2
f 127/11/2 128/12/2 129/1/2
f 127/11/2 129/1/2 126/10/2
f 126/10/2 129/1/2 130/3/2
f 125/9/2 126/10/2 130/3/2
f 131/4/2 132/6/2 134/8/2
f 134/8/2 132/6/2 125/9/2
f 134/8/2 125/9/2 133/7/2
f 133/7/2 125/9/2 130/3/2
f 131/4/2 134/8/2 135/5/2
f 136/2/2 133/7/2 130/3/2
f 131/4/2 135/5/2 136/2/2
f 131/4/2 136/2/2 130/3/2
f 142/27/2 143/18/2 138/28/2
f 138/28/2 143/18/2 144/29/2
f 138/28/2 144/29/2 137/9/2
f 137/9/2 144/29/2 145/30/2
f 142/27/2 138/28/2 139/31/2
f 146/2/2 137/9/2 145/30/2
f 142/27/2 139/31/2 140/21/2
f 142/27/2 140/21/2 141/32/2
f 154/6/2 155/7/2 156/8/2
f 154/6/2 156/8/2 157/5/2
f 158/2/2 147/9/2 148/10/2
f 158/2/2 148/10/2 149/11/2
f 150/12/2 151/1/2 152/3/2
f 150/12/2 152/3/2 153/4/2
f 154/6/2 157/5/2 158/2/2
f 154/6/2 158/2/2 149/11/2
f 154/6/2 149/11/2 150/12/2
f 154/6/2 150/12/2 153/4/2
f 159/9/2 160/34/2 164/33/2
f 164/33/2 160/34/2 161/35/2
f 164/33/2 161/35/2 163/36/2
f 163/36/2 161/35/2 162/37/2
f 166/2/2 163/36/2 162/37/2
f 159/9/2 164/33/2 165/38/2
f 159/9/2 165/38/2 166/2/2
f 159/9/2 166/2/2 162/37/2
f 172/27/2 171/32/2 170/21/2
f 172/27/2 170/21/2 169/31/2
f 172/27/2 169/31/2 174/29/2
f 174/29/2 169/31/2 168/28/2
f 174/29/2 168/28/2 175/30/2
f 175/30/2 168/28/2 167/9/2
f 172/27/2 174/29/2 173/18/2
f 176/2/2 175/30/2 167/9/2
f 190/13/2 189/15/2 184/14/2
f 184/14/2 189/15/2 188/16/2
f 184/14/2 188/16/2 185/17/2
f 185/17/2 188/16/2 187/18/2
f 190/13/2 184/14/2 183/19/2
f 186/20/2 185/17/2 187/18/2
f 190/13/2 183/19/2 182/21/2
f 191/22/2 190/13/2 182/21/2
f 191/22/2 182/21/2 181/23/2
f 192/2/2 191/22/2 181/23/2
f 180/24/2 179/26/2 178/25/2
f 180/24/2 178/25/2 177/9/2
f 180/24/2 177/9/2 192/2/2
f 180/24/2 192/2/2 181/23/2
f 5/1/3 6/3/3 102/3/3 101/1/3
f 6/3/4 7/4/4 103/4/4 102/3/4
f 11/5/5 12/2/5 108/2/5 107/5/5
f 7/4/6 8/6/6 104/6/6 103/4/6
f 12/2/6 9/7/6 105/7/6 108/2/6
f 10/8/3 11/5/3 107/5/3 106/8/3
f 9/7/4 10/8/4 106/8/4 105/7/4
f 8/6/5 1/9/5 97/9/5 104/6/5
f 1/9/6 2/10/6 98/10/6 97/9/6
f 2/10/4 3/11/4 99/11/4 98/10/4
f 4/12/5 5/1/5 101/1/5 100/12/5
f 3/11/6 4/12/6 100/12/6 99/11/6
f 26/13/3 25/15/3 121/15/3 122/13/3
f 25/15/4 24/16/4 120/16/4 121/15/4
f 21/17/5 20/14/5 116/14/5 117/17/5
f 24/16/6 23/18/6 119/18/6 120/16/6
f 20/14/6 19/19/6 115/19/6 116/14/6
f 22/20/3 21/17/3 117/17/3 118/20/3
f 23/18/5 22/20/5 118/20/5 119/18/5
f 19/19/7 18/21/7 114/21/7 115/19/7
f 27/22/8 26/13/8 122/13/8 123/22/8
f 18/21/6 17/23/6 113/23/6 114/21/6
f 28/2/3 27/22/3 123/22/3 124/2/3
f 16/24/3 15/26/3 111/26/3 112/24/3
f 15/26/4 14/25/4 110/25/4 111/26/4
f 14/25/6 13/9/6 109/9/6 110/25/6
f 13/9/4 28/2/4 124/2/4 109/9/4
f 17/23/9 16/24/9 112/24/9 113/23/9
f 31/11/3 32/12/3 128/12/3 127/11/3
f 32/12/4 33/1/4 129/1/4 128/12/4
f 30/10/5 31/11/5 127/11/5 126/10/5
f 33/1/6 34/3/6 130/3/6 129/1/6
f 29/9/3 30/10/3 126/10/3 125/9/3
f 35/4/3 36/6/3 132/6/3 131/4/3
f 36/6/4 29/9/4 125/9/4 132/6/4
f 37/7/5 38/8/5 134/8/5 133/7/5
f 38/8/6 39/5/6 135/5/6 134/8/6
f 40/2/3 37/7/3 133/7/3 136/2/3
f 39/5/4 40/2/4 136/2/4 135/5/4
f 34/3/5 35/4/5 131/4/5 130/3/5
f 46/27/3 47/18/3 143/18/3 142/27/3
f 47/18/4 48/29/4 144/29/4 143/18/4
f 41/9/5 42/28/5 138/28/5 137/9/5
f 48/29/6 49/30/6 145/30/6 144/29/6
f 42/28/6 43/31/6 139/31/6 138/28/6
f 50/2/3 41/9/3 137/9/3 146/2/3
f 49/30/5 50/2/5 146/2/5 145/30/5
f 43/31/4 44/21/4 140/21/4 139/31/4
f 45/32/5 46/27/5 142/27/5 141/32/5
f 44/21/6 45/32/6 141/32/6 140/21/6
f 58/6/3 59/7/3 155/7/3 154/6/3
f 59/7/4 60/8/4 156/8/4 155/7/4
f 60/8/6 61/5/6 157/5/6 156/8/6
f 62/2/3 51/9/3 147/9/3 158/2/3
f 51/9/4 52/10/4 148/10/4 147/9/4
f 52/10/6 53/11/6 149/11/6 148/10/6
f 54/12/3 55/1/3 151/1/3 150/12/3
f 55/1/4 56/3/4 152/3/4 151/1/4
f 56/3/6 57/4/6 153/4/6 152/3/6
f 61/5/4 62/2/4 158/2/4 157/5/4
f 53/11/4 54/12/4 150/12/4 149/11/4
f 57/4/5 58/6/5 154/6/5 153/4/5
f 63/9/3 64/34/3 160/34/3 159/9/3
f 64/34/4 65/35/4 161/35/4 160/34/4
f 67/36/10 68/33/10 164/33/10 163/36/10
f 65/35/6 66/37/6 162/37/6 161/35/6
f 70/2/3 67/36/3 163/36/3 166/2/3
f 68/33/6 69/38/6 165/38/6 164/33/6
f 69/38/4 70/2/4 166/2/4 165/38/4
f 66/37/5 63/9/5 159/9/5 162/37/5
f 76/27/3 75/32/3 171/32/3 172/27/3
f 75/32/4 74/21/4 170/21/4 171/32/4
f 74/21/6 73/31/6 169/31/6 170/21/6
f 73/31/4 72/28/4 168/28/4 169/31/4
f 79/30/5 78/29/5 174/29/5 175/30/5
f 72/28/6 71/9/6 167/9/6 168/28/6
f 77/18/5 76/27/5 172/27/5 173/18/5
f 78/29/6 77/18/6 173/18/6 174/29/6
f 80/2/3 79/30/3 175/30/3 176/2/3
f 71/9/5 80/2/5 176/2/5 167/9/5
f 94/13/3 93/15/3 189/15/3 190/13/3
f 93/15/4 92/16/4 188/16/4 189/15/4
f 89/17/5 88/14/5 184/14/5 185/17/5
f 92/16/6 91/18/6 187/18/6 188/16/6
f 88/14/6 87/19/6 183/19/6 184/14/6
f 90/20/3 89/17/3 185/17/3 186/20/3
f 91/18/5 90/20/5 186/20/5 187/18/5
f 87/19/11 86/21/11 182/21/11 183/19/11
f 95/22/12 94/13/12 190/13/12 191/22/12
f 86/21/6 85/23/6 181/23/6 182/21/6
f 96/2/3 95/22/3 191/22/3 192/2/3
f 84/24/3 83/26/3 179/26/3 180/24/3
f 83/26/4 82/25/4 178/25/4 179/26/4
f 82/25/6 81/9/6 177/9/6 178/25/6
f 81/9/4 96/2/4 192/2/4 177/9/4
f 85/23/9 84/24/9 180/24/9 181/23/9
